<svg xmlns="http://www.w3.org/2000/svg" fill="none" viewBox="0 0 24 24" id="Hexagon--Streamline-Rounded-Material" height="24" width="24">
  <desc>
    Hexagon Streamline Icon: https://streamlinehq.com
  </desc>
  <path fill="#000000" d="M7.675 21c-0.26665 0 -0.5149 -0.06565 -0.74475 -0.197 -0.22965 -0.13115 -0.41475 -0.3155 -0.55525 -0.553l-4.34999 -7.5c-0.13333 -0.23885 -0.2 -0.49015 -0.2 -0.754 0 -0.264 0.06667 -0.51265 0.2 -0.746L6.375 3.75c0.1405 -0.2375 0.3256 -0.421915 0.55525 -0.55325C7.1601 3.065585 7.40835 3 7.675 3h8.65c0.2667 0 0.51495 0.065585 0.74475 0.19675 0.2297 0.131335 0.41475 0.31575 0.55525 0.55325l4.35 7.5c0.13335 0.23885 0.2 0.49015 0.2 0.754 0 0.264 -0.06665 0.51265 -0.2 0.746l-4.35 7.5c-0.1405 0.2375 -0.32555 0.42185 -0.55525 0.553 -0.2298 0.13135 -0.47805 0.197 -0.74475 0.197h-8.65Zm-0.025 -1.5h8.7l4.3 -7.5 -4.3 -7.5H7.65L3.32501 12 7.65 19.5Z" stroke-width="0.5"></path>
</svg>